# This file uses centimeters as units for non-parametric coordinates.

mtllib skybox.mtl
g default
v 25.430242 22.583573 -1.136940
v 24.527979 22.596645 6.785556
v 21.221695 22.602346 14.041497
v 15.835032 22.600119 19.920618
v 8.895273 22.590182 23.847426
v 1.081732 22.573507 25.437547
v -6.840748 22.551726 24.535321
v -14.096659 22.526972 21.229069
v -19.975746 22.501668 15.842429
v -23.902514 22.478291 8.902682
v -25.492597 22.459128 1.089142
v -24.590334 22.446056 -6.833352
v -21.284049 22.440355 -14.089289
v -15.897389 22.442581 -19.968406
v -8.957634 22.452519 -23.895215
v -1.144096 22.469194 -25.485336
v 6.778381 22.490974 -24.583111
v 14.034291 22.515728 -21.276862
v 19.913377 22.541033 -15.890224
v 23.840144 22.564410 -8.950478
v 18.808625 15.251454 -0.833644
v 18.141615 15.261117 5.023181
v 15.697398 15.265332 10.387237
v 11.715225 15.263686 14.733463
v 6.584907 15.256340 17.636419
v 0.808628 15.244012 18.811936
v -5.048182 15.227911 18.144954
v -10.412221 15.209611 15.700760
v -14.758417 15.190904 11.718603
v -17.661344 15.173622 6.588294
v -18.836831 15.159456 0.812016
v -18.169823 15.149792 -5.044805
v -15.725605 15.145577 -10.408861
v -11.743436 15.147224 -14.755084
v -6.613120 15.154570 -17.658040
v -0.836844 15.166897 -18.833555
v 5.019965 15.182999 -18.166575
v 10.384001 15.201299 -15.722382
v 14.730201 15.220005 -11.740229
v 17.633123 15.237287 -6.609919
v 15.688710 7.469819 -0.680182
v 15.133001 7.477870 4.199299
v 13.096656 7.481381 8.668241
v 9.779001 7.480010 12.289205
v 5.504794 7.473889 14.707736
v 0.692421 7.463619 15.687093
v -4.187052 7.450205 15.131407
v -8.655977 7.434959 13.095082
v -12.276920 7.419374 9.777442
v -14.695424 7.404975 5.503241
v -15.674757 7.393173 0.690868
v -15.119049 7.385122 -4.188613
v -13.082703 7.381610 -8.657550
v -9.765051 7.382982 -12.278514
v -5.490845 7.389102 -14.697045
v -0.678474 7.399373 -15.676400
v 4.200997 7.412787 -15.120715
v 8.669919 7.428033 -13.084394
v 12.290864 7.443618 -9.766754
v 14.709367 7.458017 -5.492553
v 0.025430 0.131831 0.019491
vt 0.651539 0.034425
vt 0.614280 0.148896
vt 0.717374 0.201333
vt 0.788244 0.103958
vt 0.799190 0.283005
vt 0.896734 0.212259
vt 0.851718 0.385919
vt 0.966389 0.348725
vt 0.869819 0.500000
vt 0.990390 0.500000
vt 0.851718 0.614081
vt 0.966389 0.651274
vt 0.799190 0.716994
vt 0.896734 0.787741
vt 0.717374 0.798667
vt 0.788244 0.896041
vt 0.614280 0.851104
vt 0.651539 0.965575
vt 0.500000 0.869173
vt 0.500000 0.989534
vt 0.385720 0.851104
vt 0.348461 0.965575
vt 0.282626 0.798667
vt 0.211756 0.896041
vt 0.200810 0.716994
vt 0.103266 0.787741
vt 0.148282 0.614081
vt 0.033611 0.651274
vt 0.130181 0.500000
vt 0.009610 0.500000
vt 0.148282 0.385919
vt 0.033611 0.348726
vt 0.200810 0.283006
vt 0.103266 0.212259
vt 0.282626 0.201333
vt 0.211756 0.103959
vt 0.385720 0.148896
vt 0.348461 0.034425
vt 0.500000 0.130827
vt 0.500000 0.010466
vt 0.563597 0.304609
vt 0.620969 0.333791
vt 0.666500 0.379242
vt 0.695732 0.436514
vt 0.705805 0.500000
vt 0.695732 0.563486
vt 0.666500 0.620758
vt 0.620969 0.666209
vt 0.563597 0.695391
vt 0.500000 0.705446
vt 0.436403 0.695391
vt 0.379031 0.666209
vt 0.333500 0.620758
vt 0.304268 0.563486
vt 0.294195 0.500000
vt 0.304268 0.436514
vt 0.333500 0.379242
vt 0.379031 0.333791
vt 0.436403 0.304609
vt 0.500000 0.294554
vt 0.500000 0.500000
vn -0.741154 0.670618 0.031018
vn -0.825038 0.563998 0.034913
vn -0.795851 0.563578 -0.221361
vn -0.714936 0.670254 -0.199063
vn -0.688901 0.563395 -0.456072
vn -0.618912 0.670095 -0.409781
vn -0.514656 0.563467 -0.646246
vn -0.462479 0.670157 -0.580519
vn -0.290173 0.563786 -0.773269
vn -0.260945 0.670434 -0.694569
vn -0.037425 0.564321 -0.824707
vn -0.034028 0.670897 -0.740769
vn 0.218848 0.565020 -0.795524
vn 0.196067 0.671503 -0.714592
vn 0.453560 0.565815 -0.688576
vn 0.406820 0.672192 -0.618591
vn 0.643736 0.566627 -0.514332
vn 0.577600 0.672896 -0.462157
vn 0.770760 0.567377 -0.289847
vn 0.691682 0.673546 -0.260597
vn 0.822197 0.567993 -0.037096
vn 0.737892 0.674080 -0.033639
vn 0.793012 0.568412 0.219179
vn 0.711699 0.674443 0.196497
vn 0.686061 0.568595 0.453894
vn 0.615663 0.674602 0.407274
vn 0.511814 0.568524 0.644071
vn 0.459185 0.674540 0.578053
vn 0.287327 0.568205 0.771094
vn 0.257591 0.674263 0.692110
vn 0.034575 0.567669 0.822530
vn 0.030621 0.673799 0.738280
vn -0.221699 0.566970 0.793344
vn -0.199499 0.673193 0.712047
vn -0.456411 0.566176 0.686392
vn -0.410240 0.672504 0.615988
vn -0.646584 0.565363 0.512146
vn -0.580975 0.671801 0.459513
vn -0.773604 0.564613 0.287662
vn -0.694997 0.671150 0.257946
vn -0.745912 0.665311 0.031238
vn -0.719548 0.664918 -0.200335
vn -0.622910 0.664747 -0.412426
vn -0.465458 0.664814 -0.584270
vn -0.262607 0.665112 -0.699044
vn -0.034220 0.665614 -0.745512
vn 0.197343 0.666268 -0.719126
vn 0.409413 0.667012 -0.622475
vn 0.581233 0.667773 -0.465025
vn 0.695987 0.668475 -0.262190
vn 0.742446 0.669051 -0.033826
vn 0.716068 0.669444 0.197715
vn 0.619436 0.669616 0.409773
vn 0.462009 0.669549 0.581595
vn 0.259193 0.669250 0.696365
vn 0.030835 0.668749 0.742849
vn -0.200714 0.668094 0.716494
vn -0.412791 0.667350 0.619877
vn -0.584636 0.666590 0.462449
vn -0.699423 0.665887 0.259619
vn -0.002529 0.999995 -0.001938
s 1
g pCone3
usemtl lambert4SG
f 1/1/1 21/2/2 22/3/3 2/4/4
f 2/4/4 22/3/3 23/5/5 3/6/6
f 3/6/6 23/5/5 24/7/7 4/8/8
f 4/8/8 24/7/7 25/9/9 5/10/10
f 5/10/10 25/9/9 26/11/11 6/12/12
f 6/12/12 26/11/11 27/13/13 7/14/14
f 7/14/14 27/13/13 28/15/15 8/16/16
f 8/16/16 28/15/15 29/17/17 9/18/18
f 9/18/18 29/17/17 30/19/19 10/20/20
f 10/20/20 30/19/19 31/21/21 11/22/22
f 11/22/22 31/21/21 32/23/23 12/24/24
f 12/24/24 32/23/23 33/25/25 13/26/26
f 13/26/26 33/25/25 34/27/27 14/28/28
f 14/28/28 34/27/27 35/29/29 15/30/30
f 15/30/30 35/29/29 36/31/31 16/32/32
f 16/32/32 36/31/31 37/33/33 17/34/34
f 17/34/34 37/33/33 38/35/35 18/36/36
f 18/36/36 38/35/35 39/37/37 19/38/38
f 19/38/38 39/37/37 40/39/39 20/40/40
f 20/40/40 40/39/39 21/2/2 1/1/1
f 21/2/2 41/41/41 42/42/42 22/3/3
f 22/3/3 42/42/42 43/43/43 23/5/5
f 23/5/5 43/43/43 44/44/44 24/7/7
f 24/7/7 44/44/44 45/45/45 25/9/9
f 25/9/9 45/45/45 46/46/46 26/11/11
f 26/11/11 46/46/46 47/47/47 27/13/13
f 27/13/13 47/47/47 48/48/48 28/15/15
f 28/15/15 48/48/48 49/49/49 29/17/17
f 29/17/17 49/49/49 50/50/50 30/19/19
f 30/19/19 50/50/50 51/51/51 31/21/21
f 31/21/21 51/51/51 52/52/52 32/23/23
f 32/23/23 52/52/52 53/53/53 33/25/25
f 33/25/25 53/53/53 54/54/54 34/27/27
f 34/27/27 54/54/54 55/55/55 35/29/29
f 35/29/29 55/55/55 56/56/56 36/31/31
f 36/31/31 56/56/56 57/57/57 37/33/33
f 37/33/33 57/57/57 58/58/58 38/35/35
f 38/35/35 58/58/58 59/59/59 39/37/37
f 39/37/37 59/59/59 60/60/60 40/39/39
f 40/39/39 60/60/60 41/41/41 21/2/2
f 41/41/41 61/61/61 42/42/42
f 42/42/42 61/61/61 43/43/43
f 43/43/43 61/61/61 44/44/44
f 44/44/44 61/61/61 45/45/45
f 45/45/45 61/61/61 46/46/46
f 46/46/46 61/61/61 47/47/47
f 47/47/47 61/61/61 48/48/48
f 48/48/48 61/61/61 49/49/49
f 49/49/49 61/61/61 50/50/50
f 50/50/50 61/61/61 51/51/51
f 51/51/51 61/61/61 52/52/52
f 52/52/52 61/61/61 53/53/53
f 53/53/53 61/61/61 54/54/54
f 54/54/54 61/61/61 55/55/55
f 55/55/55 61/61/61 56/56/56
f 56/56/56 61/61/61 57/57/57
f 57/57/57 61/61/61 58/58/58
f 58/58/58 61/61/61 59/59/59
f 59/59/59 61/61/61 60/60/60
f 60/60/60 61/61/61 41/41/41
